<?xml version="1.0" encoding="UTF-8"?>
<!-- Generator: visioncortex VTracer 0.6.4 -->
<svg version="1.1" xmlns="http://www.w3.org/2000/svg" width="225" height="225">
<path d="M0 0 C74.25 0 148.5 0 225 0 C225 74.25 225 148.5 225 225 C150.75 225 76.5 225 0 225 C0 150.75 0 76.5 0 0 Z " fill="#F05033" transform="translate(0,0)"/>
<path d="M0 0 C35.64 0 71.28 0 108 0 C106.35 1.32 104.7 2.64 103 4 C101.35676222 5.56562421 99.73645027 7.15557263 98.13671875 8.765625 C97.25048828 9.65507812 96.36425781 10.54453125 95.45117188 11.4609375 C94.53916016 12.38132812 93.62714844 13.30171875 92.6875 14.25 C91.74697804 15.19554456 90.80622491 16.14085925 89.86523438 17.0859375 C87.57454196 19.38837706 85.28622264 21.69312351 83 24 C85.28853082 29.32171791 89.48093024 33.11667949 93.46386719 37.21899414 C94.39878157 38.19191975 95.32192574 39.17630493 96.23242188 40.17211914 C101.17729328 45.57541386 104.90946983 49.49341602 112.44921875 50.04296875 C113.90074341 50.01432739 113.90074341 50.01432739 115.3815918 49.98510742 C120.2322083 50.01269601 122.98802828 52.16253603 126.53125 55.3984375 C128.1449094 57.23621626 129.07760282 58.72508378 130 61 C129.87486551 62.83409434 129.68741264 64.66441582 129.45703125 66.48828125 C129.35621153 72.89885705 131.80603627 76.2663007 136.06800842 80.67776489 C137.09061333 81.68830176 138.12404779 82.68798537 139.16748047 83.67700195 C140.7478599 85.1854573 142.25728315 86.7458392 143.76953125 88.32226562 C148.5638808 93.12969173 152.46348913 96.5520383 159.546875 97.09765625 C160.50948242 97.07840088 161.47208984 97.05914551 162.46386719 97.03930664 C165.99548284 96.98457136 168.13424737 97.99397316 171 100 C173.25 102.4375 173.25 102.4375 175 105 C175.61875 105.8971875 175.61875 105.8971875 176.25 106.8125 C177.91785687 111.67708255 177.33460074 115.90325312 175.875 120.6875 C173.05401352 125.67124279 169.29648765 128.72580191 164 131 C159.10890424 131.87340996 155.02177895 131.40034262 150.6875 128.9375 C146.80425927 126.14714738 144.73005373 123.54139104 143 119 C143 115.04 143 111.08 143 107 C132.605 96.605 132.605 96.605 122 86 C121.67 105.8 121.34 125.6 121 146 C122.98 146.99 122.98 146.99 125 148 C129.41561086 153.04641241 130.30565558 155.88193738 130.2109375 162.46484375 C129.79557595 167.45687429 127.73585025 170.5416308 124.0625 173.75 C119.58863848 177.03691867 116.90714959 178.53302256 111.15625 178.3828125 C105.91430941 177.45217812 102.04926004 174.15687646 98.5625 170.3125 C95.24897119 165.40847737 95.40033475 160.80771692 96 155 C98.03066292 151.01119784 100.61684793 147.93206512 104 145 C104.66 145 105.32 145 106 145 C106 124.21 106 103.42 106 82 C104.35 81.34 102.7 80.68 101 80 C95.73747299 73.12947863 95.73747299 73.12947863 96.30664062 68.51269531 C96.9166142 63.39266568 96.8242693 60.20050111 93.84765625 55.86523438 C90.93715903 52.60936709 87.7312278 49.68139399 84.5 46.75 C83.38920108 45.69948956 82.28109718 44.64612171 81.17578125 43.58984375 C78.48083168 41.02617181 75.75135557 38.50319908 73 36 C70.23014815 37.26701081 68.18352556 38.56679174 66.03355408 40.71920776 C65.47705673 41.27151062 64.92055939 41.82381348 64.34719849 42.39285278 C63.45011673 43.2983638 63.45011673 43.2983638 62.53491211 44.22216797 C61.57566078 45.17857178 61.57566078 45.17857178 60.59703064 46.15429688 C58.48555165 48.26207296 56.38135716 50.37696114 54.27734375 52.4921875 C52.8108761 53.95984746 51.34403838 55.42713772 49.87684631 56.89407349 C46.80305413 59.96942976 43.73265081 63.04811662 40.66479492 66.12939453 C36.73338379 70.07778778 32.79542982 74.01957409 28.85513973 77.95910454 C25.82568919 80.98882712 22.79885301 84.02115007 19.77289009 87.05435562 C18.32182213 88.50860452 16.8701488 89.96224965 15.41786003 91.41527939 C13.38794297 93.44736649 11.36135423 95.48271424 9.33569336 97.51904297 C8.73561462 98.11866852 8.13553589 98.71829407 7.51727295 99.33609009 C6.96359543 99.89403259 6.40991791 100.4519751 5.83946228 101.02682495 C5.36071624 101.50724684 4.8819702 101.98766872 4.3887167 102.48264885 C2.80213101 104.21619726 1.40999288 106.12000949 0 108 C0 72.36 0 36.72 0 0 Z " fill="#FEFCFC" transform="translate(0,0)"/>
<path d="M0 0 C0.66 1.32 1.32 2.64 2 4 C6.8740639 10.29478992 12.70262024 15.86172432 18.3125 21.48950195 C19.21911377 22.40268692 20.12572754 23.31587189 21.05981445 24.25672913 C24.03636288 27.25408464 27.01803356 30.24631755 30 33.23828125 C31.03225792 34.27459327 32.06448428 35.31093673 33.09667969 36.34731102 C37.94171513 41.21133414 42.78911414 46.07298632 47.63946533 50.93170863 C53.22105137 56.52309119 58.79423263 62.1226817 64.36053467 67.72927886 C68.67897312 72.07789574 73.00507725 76.41879042 77.3369751 80.75399941 C79.91807567 83.33744517 82.49579577 85.92405951 85.06542969 88.51891518 C87.9284363 91.40957708 90.80715512 94.2840848 93.6875 97.1574707 C94.53030518 98.01308594 95.37311035 98.86870117 96.24145508 99.75024414 C100.59583722 104.06637398 104.1341145 107.0955933 110 109 C110 109.33 110 109.66 110 110 C73.7 110 37.4 110 0 110 C0 73.7 0 37.4 0 0 Z " fill="#FEFEFE" transform="translate(0,115)"/>
<path d="M0 0 C36.3 0 72.6 0 110 0 C110 36.3 110 72.6 110 110 C109.34 108.68 108.68 107.36 108 106 C102.31603956 99.05023222 95.86901599 92.71258318 89.53637695 86.359375 C88.63761841 85.45404526 87.73885986 84.54871552 86.81286621 83.61595154 C83.87480801 80.6571728 80.93170705 77.70343739 77.98828125 74.75 C76.96776029 73.72542285 75.94726987 72.70081528 74.92680931 71.67617798 C70.13996885 66.87037577 65.35078276 62.06692657 60.55864745 57.26640415 C55.0461298 51.74407377 49.54203583 46.21351811 44.04476005 40.67601585 C39.77638943 36.37749322 35.50037842 32.0866681 31.21856278 27.80153847 C28.66826422 25.24889345 26.12135572 22.69307265 23.58251381 20.12902832 C20.75781028 17.27672523 17.91745773 14.44051989 15.07543945 11.60546875 C14.24153183 10.75875107 13.40762421 9.91203339 12.54844666 9.03965759 C7.12731277 3.61036658 7.12731277 3.61036658 0 1 C0 0.67 0 0.34 0 0 Z " fill="#FEFEFE" transform="translate(115,0)"/>
<path d="M0 0 C0.33 0 0.66 0 1 0 C1 35.64 1 71.28 1 108 C-34.64 108 -70.28 108 -107 108 C-105.35 106.68 -103.7 105.36 -102 104 C-100.51746962 102.60529563 -99.05673888 101.18714475 -97.61579895 99.74951172 C-96.77040054 98.9083783 -95.92500214 98.06724487 -95.0539856 97.20062256 C-94.14003021 96.28621399 -93.22607483 95.37180542 -92.28442383 94.4296875 C-91.30192067 93.45017931 -90.31921364 92.47087558 -89.33631897 91.49176025 C-86.67710546 88.84135267 -84.02111766 86.18773551 -81.3659842 83.53324127 C-79.70631221 81.87428127 -78.04592972 80.21603583 -76.38529015 78.55804443 C-70.59034939 72.77234303 -64.79798557 66.98407617 -59.00805664 61.19335938 C-53.61224319 55.79694423 -48.21086719 50.40614147 -42.80687314 45.01791954 C-38.16372012 40.38783561 -33.52442406 35.75391102 -28.88812083 31.11696815 C-26.12047083 28.34906315 -23.351289 25.58273438 -20.57822609 22.82025146 C-17.97267925 20.22437593 -15.3719638 17.62375598 -12.77489281 15.01940155 C-11.36641563 13.60937838 -9.95298948 12.20430422 -8.53942871 10.79937744 C-7.70248978 9.95824402 -6.86555084 9.1171106 -6.00325012 8.25048828 C-4.90960506 7.15766037 -4.90960506 7.15766037 -3.79386616 6.04275513 C-2.08635132 4.09833208 -1.02192431 2.36379859 0 0 Z " fill="#FEFEFE" transform="translate(224,117)"/>
</svg>
